<?xml version="1.0" encoding="UTF-8"?> <svg xmlns="http://www.w3.org/2000/svg" width="941" height="1024" viewBox="0 0 941 1024" fill="none"> <path d="M56.8993 1024C53.7393 1023.13 50.5693 1022.3 47.4193 1021.37C14.1493 1011.56 -5.0107 979.049 1.3393 944.219C12.7793 881.429 23.8793 818.579 35.1593 755.759C47.3193 688.026 59.4926 620.299 71.6793 552.579C82.1793 494.019 92.5393 435.419 103.109 376.869C105.309 364.649 106.429 352.089 112.659 340.869C124.899 318.929 143.399 306.209 168.659 305.869C213.609 305.229 258.569 305.629 303.519 305.599H311.109C278.959 257.389 268.769 205.349 282.109 149.709C295.449 94.0691 327.999 51.9991 378.189 24.5791C453.739 -16.6509 545.689 -2.75095 607.189 57.4391C665.669 114.699 688.929 219.579 629.929 305.609H635.629C679.919 305.609 724.209 305.499 768.489 305.659C802.179 305.789 827.339 325.999 834.339 358.979C838.479 378.479 841.549 398.209 845.069 417.839C853.869 466.919 862.659 516.002 871.439 565.089C879.933 612.529 888.453 659.972 896.999 707.419C905.826 756.659 914.643 805.906 923.449 855.159C929.079 886.739 935.119 918.259 940.129 949.939C945.509 984.049 921.009 1017.07 886.939 1022.94C885.658 1023.23 884.392 1023.58 883.149 1024.01L56.8993 1024ZM384.569 337.569H377.659C309.059 337.569 240.463 337.569 171.869 337.569C154.199 337.569 140.929 348.419 137.599 365.689C134.209 383.309 131.079 400.989 127.919 418.689C111.133 512.609 94.3526 606.526 77.5793 700.439C62.5593 784.366 47.516 868.289 32.4493 952.209C29.2793 969.899 39.7793 986.769 57.1793 991.209C62.0793 992.449 67.3893 992.389 72.5093 992.389C295.289 992.436 518.063 992.436 740.829 992.389C785.289 992.389 829.739 992.479 874.189 992.389C896.509 992.329 912.049 974.239 908.289 952.389C901.559 913.239 894.369 874.169 887.379 835.069C872.593 752.242 857.799 669.436 842.999 586.649C830.059 514.329 817.109 442.016 804.149 369.709C800.279 348.019 788.049 337.569 766.079 337.569H562.309C560.749 337.569 559.189 337.429 557.639 337.359L556.869 336.079C558.394 335.096 559.851 334.01 561.229 332.829C570.149 324.099 579.369 315.629 587.829 306.459C625.779 265.339 640.119 216.849 628.979 162.179C609.439 66.299 511.079 10.6891 417.999 41.7791C322.859 73.5491 279.479 187.099 328.999 274.279C339.999 293.679 355.259 309.369 371.149 324.599C375.269 328.559 379.369 332.549 384.569 337.569Z" fill="#D01818"></path> <path d="M635.239 709.38C624.039 709.38 613.729 709.47 603.429 709.38C599.062 709.434 594.807 707.993 591.373 705.295C587.938 702.597 585.53 698.805 584.549 694.55C582.429 685.36 586.709 675.77 595.149 672.03C598.215 670.781 601.499 670.156 604.809 670.19C625.119 670.03 645.429 670.08 665.749 670.12C674.749 670.12 680.839 675.33 680.969 684.34C681.299 707.98 681.139 731.62 681.029 755.26C681.018 757.526 680.446 759.754 679.364 761.745C678.282 763.736 676.724 765.428 674.829 766.67C647.169 786.56 616.219 796.07 582.249 795.67C561.309 795.41 541.349 790.92 523.019 780.37C496.829 765.3 482.139 741.87 475.299 713.22C466.879 677.98 469.299 643.62 487.929 611.88C504.449 583.75 529.649 567.73 562.049 563.52C584.229 560.64 606.229 561.42 627.649 568.62C642.62 573.553 655.678 583.038 664.999 595.75C673.429 607.09 671.689 621.55 660.999 629.4C649.999 637.49 636.199 635.02 627.999 623.09C617.919 608.51 603.889 601.8 586.509 601.16C564.639 600.35 545.709 606.45 531.939 624.43C523.699 635.19 520.029 647.82 518.789 661.05C517.249 677.35 517.479 693.66 521.849 709.62C531.919 746.33 565.079 764.83 602.299 753.8C612.199 750.86 621.389 745.45 630.809 740.98C634.229 739.36 635.609 736.52 635.399 732.44C634.999 725 635.239 717.54 635.239 709.38Z" fill="#D01818"></path> <path d="M314.789 665.86C315.599 664.43 316.159 662.77 317.249 661.6C344.319 632.21 371.519 602.94 398.499 573.47C403.029 568.53 408.009 566.05 414.679 566.36C420.329 566.62 425.999 566.44 431.679 566.36C438.099 566.36 443.049 568.91 445.679 574.89C448.379 581.05 446.919 586.6 442.319 591.37C425.899 608.377 409.475 625.377 393.049 642.37C389.399 646.16 383.689 649.96 383.209 654.24C382.759 658.24 387.929 662.92 390.729 667.24C412.402 700.573 434.089 733.907 455.789 767.24C458.979 772.13 460.569 777.14 457.999 782.74C455.669 787.83 451.729 791.1 446.069 791.27C437.259 791.54 428.429 791.52 419.619 791.27C413.729 791.12 410.019 787.47 407.149 782.56C389.675 752.7 372.159 722.873 354.599 693.08C353.259 690.8 351.859 688.55 350.599 686.51C341.409 695.44 332.769 704.7 323.179 712.86C314.999 719.86 311.539 727.56 312.629 738.35C313.579 747.91 312.909 757.64 312.819 767.35C312.689 781.79 302.819 792.15 289.609 791.94C276.559 791.74 266.889 781.31 266.889 767.23C266.889 708.13 266.889 649.026 266.889 589.92C266.889 578.28 273.889 569.09 284.229 566.57C294.569 564.05 305.429 568.48 309.999 578C311.811 582.076 312.738 586.489 312.719 590.95C312.979 613.75 312.839 636.56 312.859 659.37C312.859 661.12 312.999 662.87 313.079 664.62L314.789 665.86Z" fill="#D01818"></path> <path d="M470.4 289.75C418.54 289.9 375.87 247.56 375.69 195.75C375.51 143.06 418.05 100.15 470.44 100.18C522.44 100.18 565.25 142.96 565.24 194.8C565.261 207.265 562.823 219.613 558.066 231.135C553.308 242.657 546.325 253.128 537.516 261.948C528.706 270.767 518.244 277.763 506.727 282.533C495.21 287.304 482.866 289.756 470.4 289.75ZM470.27 257.94C486.93 257.953 502.921 251.381 514.756 239.655C526.59 227.929 533.31 211.999 533.45 195.34C533.61 160.93 505.29 132.34 470.81 132.05C436.33 131.76 407.54 160.29 407.47 195.05C407.499 211.705 414.122 227.671 425.89 239.456C437.659 251.241 453.615 257.887 470.27 257.94Z" fill="#D01818"></path> </svg> 